
<svg width="100%" height="100%" viewBox="0 0 18 19" fill="none" xmlns="http://www.w3.org/2000/svg">
<g clip-path="url(#clip0_144_2173)">
<path d="M9 18.3618C13.9706 18.3618 18 14.3324 18 9.36182C18 4.39125 13.9706 0.361816 9 0.361816C4.02944 0.361816 0 4.39125 0 9.36182C0 14.3324 4.02944 18.3618 9 18.3618Z" fill="#D80027"/>
<path d="M11.0815 7.71777L11.8199 8.73537L13.0159 8.3476L12.2762 9.36432L13.0146 10.3819L11.8191 9.99263L11.0795 11.0093L11.0803 9.75212L9.88477 9.36287L11.0807 8.9751L11.0815 7.71777Z" fill="#F0F0F0"/>
<path d="M9.06571 11.9068C7.661 11.9068 6.52222 10.7681 6.52222 9.36336C6.52222 7.95866 7.661 6.81988 9.06571 6.81988C9.50368 6.81988 9.91579 6.93066 10.2756 7.1256C9.71114 6.57357 8.93922 6.23291 8.08745 6.23291C6.35854 6.23291 4.95703 7.63445 4.95703 9.36333C4.95703 11.0922 6.35857 12.4937 8.08745 12.4937C8.93929 12.4937 9.71118 12.153 10.2756 11.6011C9.91579 11.7961 9.50368 11.9068 9.06571 11.9068Z" fill="#F0F0F0"/>
</g>
<defs>
<clipPath id="clip0_144_2173">
<rect width="18" height="18" fill="white" transform="translate(0 0.361816)"/>
</clipPath>
</defs>
</svg>
